<svg width="1000" height="1000" viewBox="0 0 1000 1000" fill="none" xmlns="http://www.w3.org/2000/svg">
<path d="M442.057 572.873C379.464 525.272 333.457 683.037 194.41 889C367.63 703.827 498.123 615.541 442.057 572.873Z" fill="black"/>
<path d="M617.006 321.366C632.922 323.437 644.114 338.043 641.983 353.929C639.927 369.846 625.322 381.053 609.42 378.982C593.578 376.88 582.385 362.23 584.472 346.359C586.573 330.472 601.178 319.25 617.006 321.366ZM578.972 496.777C628.764 445.122 678.228 385.778 710.449 325.181C702.192 321.768 667.036 306.224 637.676 276.105C654.666 291.992 688.541 311.276 713.549 319.264C737.662 272.334 751.105 224.793 746.142 179.83C744.592 175.135 738.601 176.149 738.601 176.149C738.601 176.149 620.925 176.939 474.799 429.474C450.104 451.769 415.573 446.642 415.573 446.642L354.53 526.494C354.53 526.494 348.107 532.798 360.193 533.945C384.5 515.003 419.18 520.384 419.18 520.384C419.18 520.384 438.897 489.504 457.541 460.309C447.064 479.534 436.483 500.1 425.827 522.023C428.465 522.545 428.226 522.649 429.508 523.096C429.612 523.111 427.332 526.688 422.712 534.139C428.912 549.579 462.042 576.792 485.499 582.441C486.945 581.263 491.759 576.241 494.754 572.977C496.036 573.931 496.036 573.931 497.213 575.645C515.127 559.355 534.516 541.203 554.308 521.695C529.017 549.311 500.462 580.429 500.462 580.429C500.462 580.429 514.68 615.004 502.787 643.35C506.915 654.736 511.833 645.869 511.833 645.869L571.238 568.432C571.238 568.432 560.239 528.476 578.972 496.777Z" fill="black"/>
<path d="M661.88 460.532C665.009 473.26 667.006 486.434 667.006 500.115C667.006 592.172 592.386 666.778 500.344 666.778C408.286 666.778 333.681 592.172 333.681 500.115C333.681 408.073 408.286 333.452 500.344 333.452C525.008 333.452 548.362 338.967 569.42 348.579C589.912 320.457 609.42 297.253 627.781 278.027C590.225 256.433 546.782 243.884 500.344 243.884C358.822 243.884 244.097 358.609 244.097 500.115C244.097 641.636 358.822 756.376 500.344 756.376C641.865 756.376 756.59 641.636 756.59 500.115C756.59 455.719 745.084 414.079 725.203 377.685C706.53 406.165 684.831 433.99 661.88 460.532Z" fill="black"/>
</svg>
