<svg width="2637" height="426" viewBox="0 0 2637 426" fill="none" xmlns="http://www.w3.org/2000/svg">
<path fill-rule="evenodd" clip-rule="evenodd" d="M1313.19 236.672C1275.85 208.276 1248.4 302.391 1165.45 425.257C1268.79 314.793 1346.63 262.125 1313.19 236.672Z" fill="black"/>
<path fill-rule="evenodd" clip-rule="evenodd" d="M2636.03 92.0535H2519.82V346.544H2468.65V92.0535H2358.94V40.3819H2636.03V90.7555" fill="black"/>
<path fill-rule="evenodd" clip-rule="evenodd" d="M1417.53 86.684C1427.02 87.9198 1433.7 96.6325 1432.43 106.11C1431.2 115.605 1422.49 122.29 1413 121.055C1403.55 119.801 1396.88 111.062 1398.12 101.593C1399.37 92.1161 1408.09 85.4216 1417.53 86.684ZM1394.84 191.325C1424.54 160.511 1454.05 125.109 1473.27 88.96C1468.35 86.9241 1447.37 77.6513 1429.86 59.6836C1439.99 69.1608 1460.2 80.6652 1475.12 85.4305C1489.51 57.4343 1497.53 29.0736 1494.56 2.25093C1493.64 -0.54958 1490.07 0.0549743 1490.07 0.0549743C1490.07 0.0549743 1419.87 0.526168 1332.7 151.176C1317.96 164.476 1297.36 161.418 1297.36 161.418L1260.95 209.053C1260.95 209.053 1257.12 212.814 1264.33 213.498C1278.83 202.198 1299.52 205.408 1299.52 205.408C1299.52 205.408 1311.28 186.987 1322.4 169.57C1316.15 181.039 1309.84 193.308 1303.48 206.386C1305.05 206.697 1304.91 206.759 1305.68 207.026C1305.74 207.035 1304.38 209.168 1301.62 213.614C1305.32 222.824 1325.09 239.058 1339.08 242.428C1339.94 241.725 1342.81 238.729 1344.6 236.782C1345.36 237.351 1345.36 237.351 1346.07 238.374C1356.75 228.656 1368.32 217.828 1380.13 206.19C1365.04 222.664 1348 241.228 1348 241.228C1348 241.228 1356.49 261.854 1349.39 278.763C1351.85 285.556 1354.79 280.266 1354.79 280.266L1390.23 234.071C1390.23 234.071 1383.66 210.235 1394.84 191.325Z" fill="black"/>
<path fill-rule="evenodd" clip-rule="evenodd" d="M1444.35 169.773C1446.22 177.365 1447.41 185.225 1447.41 193.386C1447.41 248.303 1402.89 292.809 1347.99 292.809C1293.07 292.809 1248.56 248.303 1248.56 193.386C1248.56 138.478 1293.07 93.9636 1347.99 93.9636C1362.7 93.9636 1376.63 97.2531 1389.19 102.987C1401.42 86.2111 1413.06 72.3686 1424.01 60.8998C1401.61 48.0175 1375.69 40.5317 1347.99 40.5317C1263.56 40.5317 1195.12 108.971 1195.12 193.386C1195.12 277.81 1263.56 346.258 1347.99 346.258C1432.41 346.258 1500.85 277.81 1500.85 193.386C1500.85 166.901 1493.99 142.061 1482.13 120.351C1470.99 137.34 1458.04 153.939 1444.35 169.773Z" fill="black"/>
<path fill-rule="evenodd" clip-rule="evenodd" d="M257.069 346.544L51.8405 166.76V346.544H0V40.3819L205.228 220.166V40.3819H257.069V346.544Z" fill="black"/>
<path fill-rule="evenodd" clip-rule="evenodd" d="M514.15 346.544H293.159V40.3819H514.15V92.0535H343.959V159.381H466.826V212.778H343.959V294.437H514.15V346.544Z" fill="black"/>
<path fill-rule="evenodd" clip-rule="evenodd" d="M926.369 40.3819L811.939 345.877L729.586 163.942L648.025 346.669L532.004 40.3819H589.019L649.216 202.456L729.586 40.3908L807.583 202.456L870.937 40.3819H926.369Z" fill="black"/>
<path fill-rule="evenodd" clip-rule="evenodd" d="M1122.13 146.072C1122.13 136.799 1119.93 128.193 1115.5 120.227C1111.07 112.27 1103.87 105.834 1093.89 100.908C1091.6 99.7527 1088.96 98.8103 1085.96 98.0812C1082.98 97.3611 1080.75 96.9966 1079.33 96.9966H997.583V194.703H1079.33C1085.61 194.703 1091.32 193.192 1096.45 190.142C1101.59 187.111 1106.07 183.128 1109.93 178.202C1113.78 173.286 1116.78 167.996 1118.92 162.36C1121.05 156.714 1122.13 151.291 1122.13 146.072ZM1190.61 346.544H1132.83L1072.05 242.303H997.583V346.544H947.068V40.3819H1081.47C1082.03 40.3819 1083.39 40.5419 1085.54 40.8086C1087.68 41.0931 1090.04 41.5377 1092.61 42.1155C1095.17 42.6934 1097.73 43.3513 1100.3 44.0626C1102.87 44.7916 1104.87 45.4495 1106.3 46.0185C1118.28 50.6593 1128.56 56.527 1137.11 63.6128C1145.67 70.7074 1152.59 78.4599 1157.87 86.8437C1163.14 95.2452 1167.07 104.153 1169.64 113.542C1172.21 122.957 1173.49 132.301 1173.49 141.565C1173.49 148.802 1172.64 156.394 1170.93 164.351C1169.21 172.317 1166.36 180.212 1162.37 188.026C1158.36 195.859 1153.17 203.3 1146.74 210.395C1140.33 217.49 1132.4 223.802 1122.99 229.287L1190.61 346.544Z" fill="black"/>
<path fill-rule="evenodd" clip-rule="evenodd" d="M1812.38 253.301C1804.62 270.077 1795.26 284.319 1784.33 296.037C1773.38 307.746 1761.66 317.348 1749.14 324.86C1736.62 332.39 1723.66 337.876 1710.28 341.343C1696.9 344.819 1684.01 346.544 1671.65 346.544C1650.05 346.544 1629.97 342.499 1611.41 334.409C1592.85 326.318 1576.73 315.258 1563.06 301.229C1549.38 287.218 1538.66 270.948 1530.89 252.429C1523.11 233.955 1519.24 214.28 1519.24 193.467C1519.24 172.637 1523.11 152.918 1530.89 134.266C1538.66 115.604 1549.38 99.3526 1563.06 85.4745C1576.73 71.5964 1592.85 60.6167 1611.41 52.5174C1629.97 44.4182 1650.05 40.3819 1671.65 40.3819C1682.87 40.3819 1694.59 41.831 1706.83 44.7205C1719.06 47.6099 1731.14 52.1618 1743.09 58.3674C1755.03 64.5996 1766.34 72.7522 1776.98 82.8696C1787.64 93.0048 1796.98 105.425 1805.05 120.174C1798.72 125.091 1792.09 129.785 1785.19 134.266C1778.28 138.755 1770.93 143.743 1763.17 149.228C1751.37 130.149 1737.62 115.916 1721.93 106.518C1706.25 97.1211 1689.49 92.418 1671.65 92.418C1657.53 92.418 1644.37 95.1652 1632.13 100.651C1619.9 106.154 1609.25 113.524 1600.18 122.779C1591.12 132.034 1583.99 142.792 1578.82 155.078C1573.63 167.374 1571.04 180.167 1571.04 193.467C1571.04 207.621 1573.77 220.85 1579.25 233.146C1584.71 245.432 1592.12 256.137 1601.47 265.24C1610.83 274.344 1621.56 281.51 1633.64 286.711C1645.74 291.912 1658.4 294.508 1671.65 294.508C1679.42 294.508 1687.84 293.281 1696.9 290.818C1705.96 288.374 1714.82 284.533 1723.46 279.332C1732.09 274.122 1740 267.481 1747.2 259.382C1754.38 251.282 1760.15 241.752 1764.46 230.763L1812.38 253.301Z" fill="black"/>
<path fill-rule="evenodd" clip-rule="evenodd" d="M2329.99 346.544H2109V40.3819H2329.99V92.0535H2159.8V159.381H2282.67V212.778H2159.8V294.437H2329.99V346.544Z" fill="black"/>
<path fill-rule="evenodd" clip-rule="evenodd" d="M1831.05 346.634V40.6677H1884.67V186.099L2013.28 40.2321H2078.88L1961.49 176.177L2086.2 346.634H2019.32L1923.94 214.157L1884.67 255.151V346.634H1831.05Z" fill="black"/>
</svg>
